<?xml version="1.0" standalone="no"?><!DOCTYPE svg PUBLIC "-//W3C//DTD SVG 1.1//EN" "http://www.w3.org/Graphics/SVG/1.1/DTD/svg11.dtd"><svg t="1767353902112" class="icon" viewBox="0 0 1024 1024" version="1.1" xmlns="http://www.w3.org/2000/svg" p-id="8279" xmlns:xlink="http://www.w3.org/1999/xlink" width="200" height="200"><path d="M206.528 190.528a416 416 0 0 1 495.104-70.208l17.152 9.984 1.28 0.896 3.904-1.536c58.176-21.504 107.776-23.68 145.792 2.56l8 6.08 7.616 6.976c39.68 39.68 39.68 101.632 10.176 175.872a416.32 416.32 0 0 1-558.4 558.336c-74.24 29.632-136.192 29.504-175.872-10.112-37.12-37.12-39.936-88.128-19.84-149.12L147.2 704l-1.792-2.88a409.6 409.6 0 0 1-13.696-24.192l-6.272-12.48-8.512-19.008a416.064 416.064 0 0 1 89.6-454.976z m651.136 206.464l-2.56 4.352c-45.312 75.712-113.28 158.976-196.032 241.728-84.352 84.352-169.216 153.344-246.08 198.592l-11.968-4.16A352.192 352.192 0 0 0 857.6 396.992zM251.776 235.776A352.128 352.128 0 0 0 176 620.8c11.2 26.688 25.856 52.352 44.032 76.16-28.416 59.52-34.944 105.6-13.44 127.168 48.64 48.64 222.848-46.08 393.472-212.672l13.824-13.632c174.976-174.976 276.288-357.312 226.304-407.296-21.568-21.504-67.648-14.976-127.104 13.312a352.064 352.064 0 0 0-461.184 31.936zM448 288l25.6 134.4 134.4 25.6-134.4 25.6L448 608l-25.6-134.4L288 448l134.4-25.6 25.6-134.4z" fill="#2C374D" p-id="8280"></path></svg>