<svg xmlns="http://www.w3.org/2000/svg" fill="none" viewBox="0 0 1024 1024" height="1024" width="1024">
<rect fill="white" height="1024" width="1024"></rect>
<path fill="#FC906D" d="M260.745 95.5121C289.302 67.9522 350.564 71.0997 360.39 115.318C367.836 140.038 346.725 156.697 329.989 170.131C332.676 204.139 343.808 237.15 356.782 268.548C359.085 279.296 368.604 282.827 378.661 283.518C376.435 286.205 371.982 291.579 369.756 294.342C362.463 291.425 355.247 288.585 348.107 285.821C361.081 310.694 384.265 327.046 403.073 347.005C409.138 361.438 391.634 366.121 381.347 361.131C365.38 353.761 353.865 339.789 342.887 326.508C341.812 323.821 339.586 318.371 338.511 315.684C284.082 348.08 246.082 400.359 218.522 456.324C217.447 452.332 215.375 444.348 214.3 440.356C234.183 384.238 280.09 340.25 327.533 305.551C309.186 263.635 295.52 219.647 290.684 174.046C280.704 169.594 270.801 165.218 261.052 160.688C264.199 158.616 270.494 154.547 273.642 152.474C289.609 161.61 289.379 136.353 273.565 145.412L260.437 143.799C270.571 125.529 283.622 109.254 298.668 94.8212C285.925 95.205 273.335 95.5121 260.745 95.5121ZM309.339 148.098C320.317 149.404 349.565 150.018 341.044 131.747C332.062 109.637 305.577 129.981 309.339 148.098Z"></path>
<path fill="#FD8E6D" d="M654.183 102.958C672.684 71.4833 722.583 69.4106 748.531 92.5179C771.178 111.249 763.962 152.474 736.325 162.454C733.254 159.153 726.959 152.551 723.888 149.25C742.313 146.179 723.888 126.373 719.205 144.413C708.688 152.628 697.787 160.151 686.963 167.674C661.092 158.232 643.435 130.058 654.183 102.958ZM673.605 134.28C670.918 145.027 674.987 148.712 685.811 145.411C688.268 134.741 684.122 130.979 673.605 134.28Z"></path>
<path fill="#F4B197" d="M257.06 95.5888L260.745 95.512C273.335 95.512 285.925 95.2049 298.669 94.8211C283.622 109.254 270.571 125.528 260.438 143.799L273.566 145.412L273.642 152.474C270.495 154.547 264.2 158.616 261.052 160.688L257.368 163.145C244.47 141.88 240.325 116.086 257.06 95.5888Z"></path>
<path fill="#BE856E" d="M309.341 148.099C305.579 129.981 332.064 109.638 341.046 131.747C349.568 150.018 320.319 149.404 309.341 148.099Z"></path>
<path fill="#925F4C" d="M673.606 134.28C684.123 130.979 688.269 134.74 685.813 145.411C674.988 148.712 670.919 145.027 673.606 134.28Z"></path>
<path fill="#A86855" d="M719.206 144.413C723.888 126.373 742.313 146.179 723.888 149.25L719.206 144.413Z"></path>
<path fill="#985448" d="M273.565 145.412C289.38 136.353 289.61 161.61 273.642 152.474L273.565 145.412Z"></path>
<path fill="#F87B5C" d="M719.208 144.413L723.89 149.25C726.961 152.551 733.257 159.153 736.327 162.454C723.968 181.723 725.349 205.521 720.743 227.17C715.292 262.944 701.781 296.722 686.274 329.195C728.957 364.278 754.675 414.024 778.857 462.465C788.223 482.041 797.511 504.15 790.679 526.106C782.311 549.136 761.046 564.413 739.398 573.779C700.246 590.822 658.637 603.105 616.031 607.634C516.462 617.076 417.508 598.498 318.4 592.664C278.02 590.668 229.655 587.904 203.938 551.823C181.138 517.354 199.409 474.21 214.302 440.355C215.377 444.347 217.449 452.331 218.524 456.323C216.682 468.376 214.609 480.352 212.766 492.405C233.648 459.241 248.157 422.008 273.49 391.684C292.836 366.197 317.939 346.237 342.889 326.508C353.867 339.789 365.382 353.761 381.35 361.13C391.637 366.12 409.14 361.438 403.075 347.005C384.267 327.045 361.083 310.694 348.109 285.821C355.249 288.584 362.465 291.425 369.758 294.342C373.213 297.029 380.122 302.479 383.576 305.243C428.716 283.978 475.852 261.485 527.21 264.786C568.588 270.697 607.817 286.204 645.049 304.936C668.771 262.713 677.753 214.656 686.965 167.674C697.789 160.151 708.69 152.627 719.208 144.413ZM453.358 299.178C454.817 317.449 472.244 317.91 486.216 314.379C486.907 308.467 488.365 296.568 489.056 290.58C476.85 284.823 457.504 281.829 453.358 299.178ZM565.748 314.839C544.406 326.431 567.59 356.448 585.938 343.013C604.9 330.577 584.018 305.013 565.748 314.839ZM309.188 369.191C305.349 388.767 329.608 391.608 342.889 385.389C342.889 378.557 342.889 364.969 342.812 358.137C332.448 360.67 307.959 351.227 309.188 369.191ZM496.81 370.036C477.541 377.943 492.05 407.882 511.088 400.666C534.733 394.064 516.693 355.833 496.81 370.036ZM388.72 400.129C384.651 420.703 398.776 431.681 418.429 429.224C420.041 418.937 420.118 408.65 418.736 398.363C408.602 397.826 398.623 398.363 388.72 400.129ZM619.102 399.208C602.059 409.264 614.649 440.279 634.379 430.836C659.175 425.846 641.825 383.931 619.102 399.208ZM559.146 448.416C536.499 447.111 536.192 481.273 558.838 480.352C580.487 484.651 579.643 446.036 559.146 448.416ZM691.955 467.532C689.038 484.421 712.682 494.4 722.125 479.661C731.414 471.831 719.898 459.01 719.208 449.568C708.383 453.099 693.413 453.022 691.955 467.532ZM275.256 463.232C256.525 474.517 277.866 505.609 295.753 491.56C315.022 478.663 294.064 447.879 275.256 463.232ZM417.508 474.517C416.97 484.19 407.835 497.855 420.962 502.999C432.478 514.514 452.207 500.772 446.987 485.879C444.914 470.833 427.718 476.82 417.508 474.517ZM304.735 550.979C311.798 553.742 319.091 555.892 326.691 557.581C345.345 557.427 344.424 525.108 326 524.954C309.571 521.96 307.345 539.387 304.735 550.979ZM475.545 524.801C462.033 542.918 482.531 562.955 500.878 550.748C517.46 534.013 492.51 508.679 475.545 524.801ZM589.469 537.391C584.326 557.734 610.964 560.191 622.633 550.134C622.787 545.451 623.17 536.009 623.401 531.326C612.423 525.799 591.158 518.736 589.469 537.391Z"></path>
<path fill="#FAAE89" d="M383.651 277.146C428.944 258.415 479.304 256.879 527.207 264.787C475.849 261.486 428.714 283.979 383.574 305.244C380.12 302.48 373.21 297.029 369.756 294.342C371.982 291.579 376.435 286.205 378.661 283.518L383.651 277.146Z"></path>
<path fill="#FBCBAB" d="M453.357 299.178C457.502 281.829 476.848 284.823 489.054 290.58C488.364 296.568 486.905 308.467 486.214 314.378C472.242 317.91 454.816 317.449 453.357 299.178Z"></path>
<path fill="#F9B193" d="M218.522 456.324C246.082 400.359 284.083 348.08 338.511 315.684C339.586 318.371 341.812 323.821 342.887 326.508C317.937 346.238 292.834 366.197 273.488 391.685C248.155 422.008 233.646 459.241 212.765 492.405C214.607 480.352 216.68 468.376 218.522 456.324Z"></path>
<path fill="#FBC6AB" d="M565.748 314.84C584.018 305.013 604.899 330.577 585.938 343.014C567.59 356.448 544.406 326.432 565.748 314.84Z"></path>
<path fill="#FBCEAD" d="M309.187 369.191C307.959 351.227 332.448 360.67 342.812 358.137C342.889 364.969 342.889 378.557 342.889 385.389C329.608 391.608 305.349 388.767 309.187 369.191Z"></path>
<path fill="#F8CBAE" d="M496.81 370.036C516.693 355.834 534.733 394.065 511.088 400.667C492.05 407.883 477.541 377.943 496.81 370.036Z"></path>
<path fill="#4B585C" d="M495.656 666.055C499.111 664.903 506.02 662.677 509.474 661.525C501.49 673.885 496.731 694.536 479.074 694.996C461.418 696.301 452.513 677.34 453.664 662.216C462.646 669.433 471.474 677.263 480.84 684.326C485.83 678.338 490.82 672.273 495.656 666.055Z"></path>
<path fill="#F9D4B8" d="M388.719 400.129C398.622 398.364 408.602 397.826 418.736 398.364C420.117 408.651 420.041 418.938 418.429 429.224C398.776 431.681 384.651 420.703 388.719 400.129Z"></path>
<path fill="#F9CBA9" d="M619.101 399.208C641.824 383.931 659.174 425.847 634.378 430.837C614.648 440.279 602.058 409.265 619.101 399.208Z"></path>
<path fill="#F9C6A9" d="M559.146 448.417C579.643 446.037 580.488 484.652 558.839 480.352C536.192 481.274 536.5 447.112 559.146 448.417Z"></path>
<path fill="#FAC9AE" d="M691.953 467.531C693.411 453.022 708.381 453.099 719.205 449.568C719.896 459.01 731.411 471.83 722.123 479.661C712.68 494.4 689.035 484.421 691.953 467.531Z"></path>
<path fill="#F9C8A0" d="M275.255 463.233C294.063 447.879 315.021 478.663 295.752 491.56C277.865 505.609 256.523 474.518 275.255 463.233Z"></path>
<path fill="#F8C5A6" d="M417.509 474.518C427.719 476.821 444.915 470.833 446.988 485.879C452.208 500.773 432.479 514.514 420.963 502.999C407.836 497.855 416.971 484.191 417.509 474.518Z"></path>
<path fill="#F7D0BA" d="M304.735 550.979C307.345 539.387 309.571 521.961 326 524.955C344.424 525.108 345.345 557.428 326.691 557.581C319.09 555.892 311.798 553.743 304.735 550.979Z"></path>
<path fill="#FBD5B2" d="M475.545 524.801C492.511 508.679 517.46 534.013 500.878 550.748C482.531 562.955 462.033 542.918 475.545 524.801Z"></path>
<path fill="#F8D5BA" d="M589.467 537.391C591.156 518.736 612.421 525.799 623.399 531.326C623.168 536.009 622.785 545.451 622.631 550.134C610.962 560.191 584.324 557.734 589.467 537.391Z"></path>
<path fill="#FECAA0" d="M318.398 592.664C417.506 598.499 516.46 617.077 616.029 607.634C620.865 663.138 624.166 719.025 621.48 774.682C618.869 815.293 596.223 859.127 555.075 871.487C511.931 879.548 467.098 878.32 424.031 870.72C376.895 861.047 349.258 812.913 347.262 767.543C344.883 710.964 347.954 654.309 351.255 597.808C340.123 596.119 329.299 594.353 318.398 592.664ZM383.497 636.269C383.574 645.711 383.728 655.231 384.035 664.673C390.1 662.063 396.318 659.453 402.613 656.919C402.382 673.271 426.027 684.479 430.863 664.673C433.55 638.341 400.463 654.309 386.645 656.382C385.877 651.392 384.265 641.259 383.497 636.269ZM555.535 647.247C549.394 654.847 558.606 670.584 568.356 667.206C573.423 659.53 565.055 644.483 555.535 647.247ZM518.072 653.465C523.523 661.602 522.295 677.493 535.269 678.108C548.626 676.035 552.234 663.291 548.473 651.699C538.186 651.085 528.052 651.622 518.072 653.465ZM495.656 666.055C490.82 672.273 485.83 678.338 480.84 684.326C471.474 677.263 462.646 669.433 453.664 662.216C452.512 677.34 461.417 696.302 479.074 694.997C496.731 694.536 501.49 673.885 509.474 661.526C506.02 662.677 499.111 664.903 495.656 666.055Z"></path>
<path fill="#60384B" d="M383.498 636.269C384.265 641.259 385.877 651.392 386.645 656.382C400.463 654.31 433.55 638.342 430.864 664.673C426.027 684.48 402.383 673.271 402.613 656.92C396.318 659.453 390.1 662.063 384.035 664.673C383.728 655.231 383.574 645.712 383.498 636.269Z"></path>
<path fill="#957A70" d="M555.536 647.246C565.055 644.483 573.423 659.529 568.356 667.206C558.607 670.584 549.394 654.847 555.536 647.246Z"></path>
<path fill="#64B9B4" d="M167.702 745.74C161.407 712.807 166.474 678.722 179.14 648.014C210.615 660.604 238.022 680.948 260.822 705.898C264.123 702.289 270.648 695.227 273.949 691.695C307.727 721.251 329.683 770.076 312.487 814.218C304.733 830.032 297.133 850.529 280.014 857.669C224.894 847.919 176.377 801.781 167.702 745.74Z"></path>
<path fill="#786D66" d="M518.074 653.465C528.054 651.623 538.187 651.085 548.474 651.699C552.236 663.291 548.628 676.035 535.27 678.108C522.296 677.494 523.524 661.602 518.074 653.465Z"></path>
<path fill="#8FA75D" d="M702.088 705.437C723.506 682.483 748.225 659.606 779.547 652.083C803.345 693 800.889 748.35 779.701 790.419C760.201 828.113 719.361 848.226 679.748 857.745C663.934 838.246 647.275 817.288 644.665 791.341C638.831 752.803 659.865 715.724 687.579 690.467C691.187 694.229 698.48 701.675 702.088 705.437Z"></path>
</svg>
