<?xml version="1.0" standalone="no"?><!DOCTYPE svg PUBLIC "-//W3C//DTD SVG 1.1//EN" "http://www.w3.org/Graphics/SVG/1.1/DTD/svg11.dtd"><svg height="1024" node-id="1" sillyvg="true" template-height="1024" template-width="1024" version="1.1" viewBox="0 0 1024 1024" width="1024" xmlns="http://www.w3.org/2000/svg" xmlns:xlink="http://www.w3.org/1999/xlink"><defs node-id="10"></defs><path d="M 0.00 0.00 L 1024.00 0.00 L 1024.00 1024.00 L 0.00 1024.00 Z" fill="#ffffff" fill-rule="nonzero" node-id="12" stroke="none" target-height="1024" target-width="1024" target-x="0" target-y="0"></path><path d="M 869.91 160.71 C 885.48 148.66 877.30 117.98 898.40 112.00 C 904.91 127.21 907.46 143.74 912.91 159.39 C 929.17 167.30 946.14 173.37 962.50 181.19 C 946.05 188.40 928.91 193.85 913.17 202.56 C 904.56 218.82 898.14 236.15 890.49 252.85 C 883.54 235.79 878.00 218.21 870.18 201.50 C 856.73 190.07 835.45 190.07 826.22 173.54 C 840.72 169.50 856.11 167.30 869.91 160.71 Z" fill="#aaba69" fill-rule="nonzero" node-id="14" stroke="none" target-height="140.851" target-width="136.27899" target-x="826.2169" target-y="112"></path><path d="M 551.81 169.59 C 568.34 150.16 588.38 132.05 615.11 129.50 C 629.80 160.00 634.72 193.59 636.65 227.09 C 655.56 216.72 673.14 200.45 695.74 199.66 C 708.92 228.14 706.46 261.73 701.54 291.89 C 686.86 344.82 643.16 383.77 599.20 413.39 C 568.25 416.03 537.13 415.07 506.18 414.36 C 471.36 385.08 434.96 354.49 415.09 312.46 C 398.21 276.59 400.85 235.44 408.85 197.63 C 432.50 201.24 450.26 217.86 468.46 231.93 C 469.34 195.79 473.12 158.86 493.08 127.65 C 516.73 135.03 535.63 151.30 551.81 169.59 Z" fill="#fd8c6d" fill-rule="nonzero" node-id="16" stroke="none" target-height="288.38297" target-width="310.7149" target-x="398.21002" target-y="127.649994"></path><path d="M 284.00 389.92 C 270.02 328.02 255.96 261.20 272.92 198.78 C 313.37 243.00 357.24 293.65 359.70 356.60 C 362.52 377.44 348.36 405.22 371.57 418.23 C 437.69 473.10 491.67 542.82 526.05 621.77 C 528.42 586.95 531.68 552.22 533.79 517.41 C 514.88 487.60 490.36 450.59 506.18 414.36 C 537.13 415.07 568.25 416.03 599.20 413.40 C 611.60 454.54 582.23 488.92 563.42 522.15 C 553.39 562.42 554.10 604.71 553.48 646.04 C 581.00 614.83 608.78 583.52 642.99 559.35 C 644.75 528.92 644.66 496.75 660.13 469.40 C 679.12 434.94 708.22 407.59 737.94 382.36 C 738.21 436.34 719.74 488.13 705.50 539.56 C 752.54 550.90 800.63 568.49 835.71 603.13 C 804.50 608.14 772.67 611.57 741.28 606.91 C 713.32 602.60 688.35 588.54 661.63 580.27 C 627.16 598.29 602.01 630.56 579.77 661.60 C 534.58 737.83 569.04 830.41 548.82 912.00 C 543.81 909.89 533.70 905.58 528.69 903.38 C 527.37 861.71 529.04 820.03 527.90 778.45 C 528.95 740.90 503.98 704.24 469.25 690.79 C 453.08 696.42 442.26 710.84 428.81 720.77 C 392.32 752.33 341.77 765.17 294.38 757.08 C 318.82 717.96 356.54 690.61 396.01 668.11 C 369.81 622.39 323.30 589.33 298.69 541.76 C 361.11 558.82 433.64 582.38 462.22 646.39 C 473.65 669.78 499.76 679.27 520.51 692.46 C 496.86 586.95 428.37 496.92 344.67 430.89 C 314.51 447.86 283.91 465.97 249.27 471.69 C 211.56 479.34 173.48 469.23 136.56 462.11 C 176.21 423.86 231.07 403.02 284.00 389.92 Z" fill="#67b9b5" fill-rule="nonzero" node-id="18" stroke="none" target-height="713.221" target-width="699.154" target-x="136.557" target-y="198.779"></path><path d="M 62.00 263.23 C 120.47 266.04 185.97 262.87 234.94 300.68 C 259.65 318.26 265.71 349.56 271.34 377.35 C 227.21 386.14 171.46 402.93 136.38 364.25 C 109.65 332.24 80.02 301.03 62.00 263.23 Z" fill="#66b9b5" fill-rule="nonzero" node-id="20" stroke="none" target-height="140.05902" target-width="209.34201" target-x="62" target-y="262.874"></path><path d="M 747.88 468.87 C 792.28 437.05 849.34 440.30 901.21 439.33 C 884.60 470.81 857.78 495.25 833.95 521.19 C 802.74 553.63 753.68 538.51 715.96 528.49 C 723.96 507.74 727.13 481.54 747.88 468.87 Z" fill="#64bab6" fill-rule="nonzero" node-id="22" stroke="none" target-height="116.583984" target-width="185.25098" target-x="715.962" target-y="437.047"></path><path d="M 166.71 631.18 C 221.84 605.86 288.05 595.13 344.76 621.59 C 360.41 631.00 378.08 644.89 380.80 663.97 C 360.49 680.15 336.23 693.16 310.11 695.62 C 273.27 697.12 241.97 674.96 209.88 660.37 C 194.59 652.10 175.59 647.53 166.71 631.18 Z" fill="#68b8b4" fill-rule="nonzero" node-id="24" stroke="none" target-height="101.98901" target-width="214.08897" target-x="166.714" target-y="595.13"></path></svg>