<?xml version="1.0" standalone="no"?><!DOCTYPE svg PUBLIC "-//W3C//DTD SVG 1.1//EN" "http://www.w3.org/Graphics/SVG/1.1/DTD/svg11.dtd"><svg t="1766927211969" class="icon" viewBox="0 0 1102 1024" version="1.1" xmlns="http://www.w3.org/2000/svg" p-id="1886" xmlns:xlink="http://www.w3.org/1999/xlink" width="215.234375" height="200"><path d="M341.858462 250.249846a209.723077 209.723077 0 0 1 419.091692 0 209.801846 209.801846 0 0 1 129.575384 398.611692A209.801846 209.801846 0 0 1 551.384615 895.212308a209.762462 209.762462 0 1 1-339.101538-246.35077 209.683692 209.683692 0 0 1-126.385231-261.395692A209.723077 209.723077 0 0 1 341.858462 250.249846m210.116923 468.676923a173.292308 173.292308 0 1 0 0-346.584615 173.292308 173.292308 0 0 0 0 346.584615" fill="#F09310" p-id="1887"></path><path d="M551.936 411.726769a134.025846 134.025846 0 0 0-133.868308 133.907693c0 73.806769 60.061538 133.907692 133.907693 133.907692 73.806769 0 133.907692-60.100923 133.907692-133.907692 0-73.846154-60.100923-133.907692-133.907692-133.907693m0 346.584616a212.873846 212.873846 0 0 1-212.676923-212.676923c0-117.287385 95.350154-212.676923 212.676923-212.676924 117.248 0 212.676923 95.389538 212.676923 212.676924 0 117.248-95.428923 212.676923-212.676923 212.676923M551.384615 855.827692c12.051692 0 23.433846 5.513846 30.916923 14.92677a169.747692 169.747692 0 0 0 233.590154 31.980307 169.865846 169.865846 0 0 0 41.787077-232.093538 39.345231 39.345231 0 0 1 19.101539-58.722462 169.865846 169.865846 0 0 0 102.636307-212.322461 169.826462 169.826462 0 0 0-207.872-111.458462 39.266462 39.266462 0 0 1-49.939692-36.312615A169.905231 169.905231 0 0 0 551.384615 88.615385a169.905231 169.905231 0 0 0-170.220307 163.209846 39.384615 39.384615 0 0 1-49.939693 36.312615 170.023385 170.023385 0 0 0-207.832615 111.458462 169.747692 169.747692 0 0 0 102.596923 212.283077 39.384615 39.384615 0 0 1 19.101539 58.761846 169.865846 169.865846 0 0 0 41.787076 232.093538 169.826462 169.826462 0 0 0 233.629539-31.980307c7.483077-9.452308 18.904615-14.966154 30.877538-14.966154m164.233847 158.523077A247.965538 247.965538 0 0 1 551.384615 952.32a248.516923 248.516923 0 0 1-310.823384 14.178462 248.477538 248.477538 0 0 1-82.550154-299.992616 248.280615 248.280615 0 0 1-109.489231-291.209846 247.729231 247.729231 0 0 1 259.741539-171.165538A248.438154 248.438154 0 0 1 551.384615 9.846154a248.398769 248.398769 0 0 1 243.081847 194.244923 248.32 248.32 0 0 1 259.859692 171.165538 248.438154 248.438154 0 0 1-109.568 291.209847 248.516923 248.516923 0 0 1-82.550154 299.992615 248.674462 248.674462 0 0 1-146.589538 47.852308" fill="#FFCE89" p-id="1888"></path></svg>